<?xml version="1.0" encoding="utf-8"?>
<!-- Generator: Adobe Illustrator 24.2.0, SVG Export Plug-In . SVG Version: 6.00 Build 0)  -->
<svg version="1.1" id="Laag_1" xmlns="http://www.w3.org/2000/svg" xmlns:xlink="http://www.w3.org/1999/xlink" x="0px" y="0px"
	 viewBox="0 0 289.1 119.1" style="enable-background:new 0 0 289.1 119.1;" xml:space="preserve">
<style type="text/css">
	.st0{fill:#CA083A;}
</style>
<g>
	<path d="M35.8,13.6c-7.6,0-11.4,3.7-11.4,11v2.9h23.2v11.1H24.4v46.8H12.4V38.7H2.7V27.5h9.7v-3.3c0-7,1.9-12.5,5.7-16.4
		c3.8-4,8.7-5.9,14.8-5.9c2.8,0,5.5,0.3,7.9,0.8v11.8C39.2,13.9,37.5,13.6,35.8,13.6"/>
	<path d="M77.2,26.2c1.5-0.3,2.9-0.5,4-0.5s2.3,0.1,3.4,0.3v12.6c-1.3-0.3-2.9-0.5-4.8-0.5c-4.1,0-7.5,1.2-10.4,3.6
		c-2.8,2.4-4.3,5.7-4.3,10v33.9H52.4V27.2h12.4l0.5,7.9C67.6,30.3,71.5,27.3,77.2,26.2"/>
	<path d="M89.6,28.9c5.2-1.9,10.2-2.8,15-2.8c9.1,0,15.8,1.8,20.1,5.4c4.3,3.6,6.5,9.7,6.5,18.1v36.5h-12.3l-0.3-5.2
		c-2.6,4-7.2,6-13.9,6c-9,0-14.9-3.3-17.8-9.8c-1.1-2.4-1.7-5.5-1.7-9.4c0-12.7,8.6-19.1,25.7-19c3,0,5.6,0.2,7.7,0.5v-2.2
		c0-6.4-4.7-9.7-14.1-9.7c-3.8,0-8.8,1.2-14.9,3.6V28.9z M113,58.1c-10.5,0-15.7,3.2-15.7,9.7c0,4.3,1.9,6.8,5.8,7.5
		c1.3,0.3,2.9,0.4,4.7,0.3c5.5,0,9.2-1.7,10.9-5.2V58.5C117,58.3,115.1,58.1,113,58.1"/>
	<path d="M238,84c-5.5,2-11.2,3-17.1,3c-10.7,0-18.4-2.7-23.1-8.1c-4.7-5.4-7.1-12.7-7.1-22.1c0-9.3,2.3-16.8,7-22.5
		c4.7-5.6,11-8.5,18.9-8.5c7.9,0,14.1,2.6,18.4,7.8c4.3,5.2,6.5,11.9,6.5,20c0,3.1-0.1,5.5-0.4,7.1h-37.7c0,8.1,3.9,12.8,11.6,14.1
		c2.2,0.4,4.5,0.6,6.8,0.6c5.5,0,10.9-1.1,16.2-3.4V84z M229.6,50.9c0-4.1-1.2-7.4-3.7-9.8c-2.4-2.4-5.6-3.6-9.3-3.6
		c-3.8,0-6.9,1.2-9.4,3.5c-2.5,2.3-3.8,5.6-3.8,9.9H229.6z"/>
	<path d="M271.5,26.2c1.5-0.3,2.9-0.5,4-0.5s2.3,0.1,3.4,0.3v12.6c-1.3-0.3-2.9-0.5-4.8-0.5c-4.1,0-7.5,1.2-10.4,3.6
		c-2.8,2.4-4.3,5.7-4.3,10v33.9h-12.8V27.2h12.4l0.5,7.9C261.8,30.3,265.8,27.3,271.5,26.2"/>
	<path d="M47.1,60.5c0,2.3-1.9,4.2-4.2,4.2c-2.3,0-4.2-1.9-4.2-4.2c0-2.3,1.9-4.2,4.2-4.2C45.2,56.3,47.1,58.2,47.1,60.5"/>
	<path d="M53.3,112.5L53.3,112.5c0-2.8,1.7-4.7,4.1-4.7c1.3,0,2.1,0.5,2.9,1.1l-0.9,1.2c-0.5-0.5-1.1-0.9-2-0.9
		c-1.4,0-2.5,1.3-2.5,3.2v0.1c0,2,1.1,3.3,2.5,3.3c0.9,0,1.4-0.4,2-0.9l0.9,1.1c-0.8,0.8-1.7,1.3-3,1.3
		C55,117.1,53.3,115.3,53.3,112.5"/>
	<path d="M65.2,107.9h3.3c1,0,1.9,0.3,2.4,0.9c0.5,0.5,0.8,1.2,0.8,2v0.1c0,1.4-0.8,2.3-1.9,2.7l2.1,3.5h-1.7l-1.9-3.2
		c0,0-0.1,0-0.1,0h-1.5v3.2h-1.5V107.9z M68.3,112.4c1.2,0,1.8-0.6,1.8-1.6v0c0-1-0.7-1.6-1.8-1.6h-1.7v3.2H68.3z"/>
	<polygon points="76.8,107.9 82.6,107.9 82.6,109.3 78.3,109.3 78.3,111.7 82.1,111.7 82.1,113.1 78.3,113.1 78.3,115.6 82.6,115.6 
		82.6,117 76.8,117 	"/>
	<path d="M90.4,107.9h1.5l3.3,9.2h-1.6l-0.8-2.1h-3.5l-0.8,2.1H87L90.4,107.9z M92.4,113.5l-1.3-3.7l-1.3,3.7H92.4z"/>
	<polygon points="101.8,109.3 99.4,109.3 99.4,107.9 105.7,107.9 105.7,109.3 103.3,109.3 103.3,117 101.8,117 	"/>
	<path d="M110.3,112.5v-0.1c0-2.7,1.7-4.6,4-4.6c2.4,0,4,1.9,4,4.6v0.1c0,2.7-1.7,4.6-4,4.6C112,117.2,110.3,115.2,110.3,112.5
		 M116.8,112.5L116.8,112.5c0-2-1-3.4-2.5-3.4c-1.4,0-2.5,1.3-2.5,3.2v0.1c0,1.9,1.1,3.3,2.5,3.3
		C115.8,115.8,116.8,114.5,116.8,112.5"/>
	<path d="M123.5,107.9h3.3c1,0,1.9,0.3,2.4,0.9c0.5,0.5,0.8,1.2,0.8,2v0.1c0,1.4-0.8,2.3-1.9,2.7l2.1,3.5h-1.7l-1.9-3.2
		c0,0-0.1,0-0.1,0H125v3.2h-1.5V107.9z M126.6,112.4c1.2,0,1.8-0.6,1.8-1.6v0c0-1-0.7-1.6-1.8-1.6H125v3.2H126.6z"/>
	<path d="M134.5,115.8l0.9-1.1c0.7,0.6,1.4,1.1,2.4,1.1c0.9,0,1.4-0.5,1.4-1.2v0c0-0.6-0.3-0.9-1.7-1.5c-1.7-0.6-2.6-1.3-2.6-2.7v0
		c0-1.5,1.2-2.5,2.9-2.5c1.1,0,2,0.3,2.9,1.1l-0.9,1.2c-0.6-0.5-1.3-0.9-2-0.9c-0.8,0-1.3,0.5-1.3,1.1v0c0,0.6,0.3,1,1.9,1.6
		c1.7,0.7,2.5,1.4,2.5,2.7v0c0,1.6-1.2,2.6-3,2.6C136.6,117.1,135.5,116.7,134.5,115.8"/>
	<path d="M152.3,112.5v-0.1c0-2.7,1.7-4.6,4-4.6c2.4,0,4,1.9,4,4.6v0.1c0,2.7-1.7,4.6-4,4.6C154,117.2,152.3,115.2,152.3,112.5
		 M158.8,112.5L158.8,112.5c0-2-1-3.4-2.5-3.4c-1.4,0-2.5,1.3-2.5,3.2v0.1c0,1.9,1.1,3.3,2.5,3.3
		C157.8,115.8,158.8,114.5,158.8,112.5"/>
	<polygon points="165.5,107.9 171.2,107.9 171.2,109.3 167,109.3 167,111.9 170.7,111.9 170.7,113.2 167,113.2 167,117 165.5,117 	
		"/>
	<path d="M183.1,107.9h2.8c2.6,0,4.3,1.8,4.3,4.5v0.1c0,2.7-1.7,4.5-4.3,4.5h-2.8V107.9z M184.6,109.3v6.4h1.3
		c1.7,0,2.8-1.2,2.8-3.1v-0.1c0-2-1.1-3.2-2.8-3.2H184.6z"/>
	<path d="M195,112.5v-0.1c0-2.7,1.7-4.6,4-4.6c2.4,0,4,1.9,4,4.6v0.1c0,2.7-1.7,4.6-4,4.6C196.6,117.2,195,115.2,195,112.5
		 M201.5,112.5L201.5,112.5c0-2-1-3.4-2.5-3.4c-1.4,0-2.5,1.3-2.5,3.2v0.1c0,1.9,1.1,3.3,2.5,3.3
		C200.4,115.8,201.5,114.5,201.5,112.5"/>
	<path d="M207.8,112.5v-0.1c0-2.7,1.7-4.6,4-4.6c2.4,0,4,1.9,4,4.6v0.1c0,2.7-1.7,4.6-4,4.6C209.5,117.2,207.8,115.2,207.8,112.5
		 M214.3,112.5L214.3,112.5c0-2-1-3.4-2.5-3.4c-1.4,0-2.5,1.3-2.5,3.2v0.1c0,1.9,1.1,3.3,2.5,3.3
		C213.3,115.8,214.3,114.5,214.3,112.5"/>
	<path d="M221.1,107.9h3.3c1,0,1.9,0.3,2.4,0.9c0.5,0.5,0.8,1.2,0.8,2v0.1c0,1.4-0.8,2.3-1.9,2.7l2.1,3.5H226l-1.9-3.2
		c0,0-0.1,0-0.1,0h-1.5v3.2h-1.5V107.9z M224.2,112.4c1.2,0,1.8-0.6,1.8-1.6v0c0-1-0.7-1.6-1.8-1.6h-1.7v3.2H224.2z"/>
	<path d="M232,115.8l0.9-1.1c0.7,0.6,1.4,1.1,2.4,1.1c0.9,0,1.4-0.5,1.4-1.2v0c0-0.6-0.3-0.9-1.7-1.5c-1.7-0.6-2.6-1.3-2.6-2.7v0
		c0-1.5,1.2-2.5,2.9-2.5c1.1,0,2,0.3,2.9,1.1l-0.9,1.2c-0.6-0.5-1.3-0.9-2-0.9c-0.8,0-1.3,0.5-1.3,1.1v0c0,0.6,0.3,1,1.9,1.6
		c1.7,0.7,2.5,1.4,2.5,2.7v0c0,1.6-1.2,2.6-3,2.6C234.1,117.1,233,116.7,232,115.8"/>
	<path d="M192.7,26.2c-5.1,3.3-9.7,5.1-14,5.4c-4.4-3.9-10.2-5.8-17.4-5.8c-7.2,0-13,1.9-17.3,5.8c-4.3,3.9-6.4,9.1-6.4,15.5
		c0,6.5,2.6,11.7,7.8,15.6c-2.2,1.7-4,3.4-5.2,5.3c-1.2,1.9-1.8,4.2-1.8,7.1c0,4.2,1.9,7.5,5.7,10.1c-4.8,3.1-7.7,6.8-8.6,11.2h11.4
		c0-0.1,0-0.2,0-0.3c0-1.2,0.2-2.3,0.5-3.3c1-3.4,4.2-5.1,9.5-5l12,0.3c3.4,0.1,5.8,0.7,7,1.9c1.2,1.2,1.9,2.6,1.9,4.2
		c0,0.8-0.1,1.5-0.3,2.1h13c0.1-0.9,0.2-1.9,0.2-2.8c0-5.2-1.7-9.3-5-12.2c-3.3-2.9-8.4-4.5-15.4-4.6c-6.9-0.1-11.8-0.2-14.5-0.2
		c-2.7,0-4.8-0.6-6.3-1.6c-0.8-0.6-1.2-1.8-1.2-3.6c0-1.9,1.3-3.7,3.9-5.4c3.4,0.8,6.5,1.2,9.2,1.2c7.1,0,12.8-1.9,17-5.7
		c4.2-3.8,6.3-8.5,6.3-14.1c0-2.5-0.2-4.4-0.6-5.8c3.6-0.3,6.6-1.1,8.8-2.5V26.2z M172,46.4c0,3.4-0.8,6-2.4,7.9
		c-1.6,1.9-4.4,2.9-8.2,2.9c-7.4,0-11.1-3.6-11.1-10.7c0-7.1,3.6-10.7,10.9-10.7C168.4,35.8,172,39.3,172,46.4"/>
	<path class="st0" d="M271.2,78.6c0-4.8,3.3-8.3,7.9-8.3c4.6,0,7.7,3.4,7.7,8.3c0,4.7-3,8.3-7.9,8.3
		C274.4,86.9,271.2,83.4,271.2,78.6"/>
</g>
</svg>
